<?xml version="1.0" standalone="no"?>
<!DOCTYPE svg PUBLIC "-//W3C//DTD SVG 20010904//EN"
        "http://www.w3.org/TR/2001/REC-SVG-20010904/DTD/svg10.dtd">
<svg version="1.0" xmlns="http://www.w3.org/2000/svg"
     width="51.000000pt" height="51.000000pt" viewBox="0 0 51.000000 51.000000"
     preserveAspectRatio="xMidYMid meet">
    <metadata>
        Created by potrace 1.15, written by Peter Selinger 2001-2017
    </metadata>
    <g transform="translate(0.000000,51.000000) scale(0.100000,-0.100000)"
       fill="#000000" stroke="none">
        <path d="M230 460 c-6 -11 -17 -20 -26 -20 -30 0 -64 -47 -64 -88 0 -47 23
-79 86 -123 41 -28 45 -34 42 -67 -4 -51 -32 -51 -36 1 -3 37 -3 37 -49 37
l-46 0 6 -42 c6 -44 42 -88 73 -88 8 0 14 -9 14 -20 0 -13 7 -20 20 -20 11 0
20 7 20 15 0 8 15 21 33 28 44 19 59 39 64 90 7 62 -9 91 -74 134 -44 29 -59
45 -61 66 -3 22 1 27 17 27 16 0 21 -6 21 -25 0 -23 4 -25 45 -25 41 0 45 2
45 24 0 31 -33 72 -65 80 -14 4 -25 13 -25 21 0 22 -28 18 -40 -5z"/>
    </g>
</svg>
